<?xml version="1.0" encoding="UTF-8" standalone="no"?>
<!-- Created with Inkscape (http://www.inkscape.org/) -->

<svg
   width="150.17104"
   height="150.17104"
   viewBox="0 0 39.732751 39.732754"
   version="1.1"
   id="svg5"
   inkscape:version="1.1.2 (b8e25be833, 2022-02-05)"
   sodipodi:docname="mask-icon.svg"
   inkscape:export-filename="C:\js-projects\arcade-economics\public\favicon-32.png"
   inkscape:export-xdpi="20.456675"
   inkscape:export-ydpi="20.456675"
   xmlns:inkscape="http://www.inkscape.org/namespaces/inkscape"
   xmlns:sodipodi="http://sodipodi.sourceforge.net/DTD/sodipodi-0.dtd"
   xmlns="http://www.w3.org/2000/svg"
   xmlns:svg="http://www.w3.org/2000/svg">
  <sodipodi:namedview
     id="namedview7"
     pagecolor="#ffffff"
     bordercolor="#666666"
     borderopacity="1.0"
     inkscape:pageshadow="2"
     inkscape:pageopacity="0.0"
     inkscape:pagecheckerboard="0"
     inkscape:document-units="px"
     showgrid="false"
     units="px"
     inkscape:zoom="2.8284271"
     inkscape:cx="-1.5909903"
     inkscape:cy="89.802561"
     inkscape:window-width="1920"
     inkscape:window-height="1137"
     inkscape:window-x="-8"
     inkscape:window-y="-8"
     inkscape:window-maximized="1"
     inkscape:current-layer="layer1"
     fit-margin-top="0"
     fit-margin-left="0"
     fit-margin-bottom="0"
     fit-margin-right="0" />
  <defs
     id="defs2" />
  <g
     inkscape:label="Layer 1"
     inkscape:groupmode="layer"
     id="layer1"
     transform="translate(-73.266886,-85.702303)">
    <path
       id="text2815"
       style="font-style:normal;font-variant:normal;font-weight:bold;font-stretch:normal;font-size:24.8708px;line-height:8.5725px;font-family:'Helvetica Neue';-inkscape-font-specification:'Helvetica Neue, Bold';font-variant-ligatures:normal;font-variant-caps:normal;font-variant-numeric:normal;font-variant-east-asian:normal;letter-spacing:0px;word-spacing:0px;display:inline;fill:#000000;fill-opacity:1;stroke-width:0.100564"
       d="m 91.090622,93.888611 c -0.737332,0 -1.323457,0.226855 -1.758294,0.671146 -0.434838,0.44429 -0.65229,1.039792 -0.65229,1.786578 v 0.141811 h 1.285527 c 0.03781,-0.954751 0.397107,-1.436766 1.077722,-1.436766 0.28359,0 0.51042,0.09442 0.680574,0.26457 0.170153,0.170153 0.264765,0.406607 0.264765,0.690197 0,0.132342 -0.02835,0.264636 -0.07562,0.387525 -0.05672,0.122887 -0.103949,0.226852 -0.160667,0.302476 -0.05672,0.08508 -0.141876,0.179613 -0.264765,0.293049 -0.132342,0.113436 -0.226903,0.189021 -0.283621,0.236286 -0.06617,0.03781 -0.179488,0.113422 -0.340189,0.226858 -0.170153,0.103983 -0.264861,0.170215 -0.302673,0.198574 -0.302496,0.198513 -0.529326,0.359135 -0.680574,0.472571 -0.151248,0.113436 -0.330821,0.264852 -0.529334,0.453912 -0.207966,0.18906 -0.359186,0.368609 -0.453716,0.538763 -0.09453,0.170154 -0.179714,0.378032 -0.255338,0.62381 -0.07562,0.245777 -0.113331,0.519889 -0.113331,0.822379 h 4.849454 v -1.171996 h -3.129066 c 0.06617,-0.103982 0.151355,-0.208118 0.255338,-0.312101 0.09453,-0.103983 0.217446,-0.207897 0.35924,-0.321332 0.132342,-0.103983 0.255087,-0.189168 0.349617,-0.255339 0.09453,-0.07562 0.236422,-0.160561 0.406576,-0.273997 0.170153,-0.113435 0.283641,-0.189021 0.349812,-0.236286 0.472649,-0.321401 0.812943,-0.624012 1.039815,-0.917055 0.217418,-0.283589 0.33076,-0.671213 0.33076,-1.162769 0,-0.595538 -0.207878,-1.077502 -0.62381,-1.455621 -0.415931,-0.378119 -0.964204,-0.567243 -1.625913,-0.567243 z m 3.506966,0.103903 -0.642862,3.639545 h 1.200678 c 0.236324,-0.359214 0.567093,-0.548387 0.992478,-0.548387 0.34976,0 0.633273,0.113538 0.841239,0.330957 0.207966,0.226872 0.312102,0.519909 0.312102,0.888576 0,0.378119 -0.113564,0.680534 -0.32153,0.916858 -0.217419,0.236325 -0.491529,0.349813 -0.822383,0.349813 -0.302496,0 -0.548253,-0.08516 -0.746765,-0.264765 -0.198513,-0.179607 -0.312026,-0.415814 -0.340385,-0.708857 h -1.323239 c 0.03781,0.661709 0.27402,1.172224 0.708856,1.531436 0.434838,0.35921 1.002037,0.52934 1.692105,0.52934 0.737333,0 1.33281,-0.21741 1.796006,-0.671149 0.472649,-0.444291 0.699625,-1.011636 0.699625,-1.711157 0,-0.642802 -0.189098,-1.172123 -0.57667,-1.569148 -0.37812,-0.397026 -0.888635,-0.595527 -1.531438,-0.595527 -0.501007,0 -0.907387,0.160649 -1.219336,0.463144 l 0.255142,-1.436766 h 2.713062 l 0.0094,-1.143913 z m 6.636232,1.929372 -0.18954,0.686073 c -0.0973,-0.01183 -0.19768,-0.01905 -0.30287,-0.01905 -0.57925,0 -1.049741,0.188322 -1.397289,0.550352 -0.347549,0.36927 -0.521479,0.854455 -0.521479,1.455424 0,0.586488 0.17393,1.057033 0.521479,1.411815 0.184476,0.18448 0.40052,0.32046 0.648362,0.40894 l -0.242571,0.87777 h 0.393608 l 0.21724,-0.78605 c 0.11646,0.0176 0.23791,0.0279 0.36631,0.0279 0.49236,0 0.8978,-0.13749 1.21639,-0.40539 0.31859,-0.275144 0.50679,-0.651724 0.57196,-1.136844 h -0.99189 c -0.0869,0.506842 -0.34754,0.75305 -0.79646,0.75305 -0.0533,0 -0.10375,-0.005 -0.15261,-0.01257 l 0.62204,-2.251293 c 0.14915,0.10625 0.24607,0.279604 0.29069,0.518925 h 1.00642 c -0.0434,-0.434435 -0.22427,-0.774805 -0.53562,-1.028225 -0.15891,-0.12641 -0.33955,-0.221917 -0.5417,-0.286176 l 0.21134,-0.764637 z m -0.48514,1.434604 c 0.0303,0 0.0593,0.0016 0.0878,0.0039 l -0.61438,2.223992 c -0.0511,-0.04025 -0.0979,-0.08723 -0.13945,-0.142597 -0.152056,-0.202736 -0.224504,-0.492396 -0.224504,-0.861666 0,-0.383752 0.07247,-0.680589 0.231764,-0.897807 0.1593,-0.217218 0.37639,-0.325851 0.65878,-0.325851 z m -7.033971,7.66347 c -0.293269,0 -0.527985,0.0897 -0.703947,0.26929 -0.175961,0.1796 -0.260248,0.41599 -0.260248,0.71376 v 0.0662 c 0.01466,0.29777 0.128355,0.51521 0.340975,0.65701 0.102644,0.0709 0.315224,0.16059 0.641486,0.26457 0.0073,0.005 0.02194,0.01 0.04027,0.0143 0.150301,0.052 0.256657,0.0897 0.318976,0.11804 0.05865,0.0284 0.117397,0.0803 0.168719,0.14652 0.05132,0.0662 0.08053,0.15607 0.08053,0.26006 0,0.17015 -0.05128,0.2977 -0.150257,0.39223 -0.09898,0.0945 -0.234544,0.1371 -0.410505,0.1371 -0.201623,0 -0.363056,-0.0568 -0.487695,-0.175 -0.124639,-0.11817 -0.186986,-0.30242 -0.186986,-0.54819 h -0.450769 c 0,0.39229 0.09896,0.69006 0.304245,0.88857 0.201622,0.20324 0.465547,0.30248 0.795475,0.30248 0.102644,0 0.205266,-0.009 0.304245,-0.033 0.09531,-0.0236 0.1906,-0.0615 0.282247,-0.11824 0.08798,-0.052 0.168728,-0.11822 0.234713,-0.19858 0.06599,-0.0803 0.1172,-0.17958 0.157525,-0.30247 0.03666,-0.11816 0.05873,-0.25042 0.05873,-0.40167 0,-0.3403 -0.117292,-0.59078 -0.348242,-0.75148 -0.10631,-0.0756 -0.304351,-0.1608 -0.593954,-0.25533 -0.03299,-0.009 -0.07687,-0.0235 -0.135526,-0.0471 -0.223618,-0.0709 -0.366713,-0.13244 -0.432699,-0.18444 -0.06599,-0.0473 -0.09526,-0.14184 -0.09526,-0.2789 0,-0.1418 0.04401,-0.25512 0.13199,-0.34019 0.08798,-0.0851 0.208876,-0.12767 0.366508,-0.12767 0.351924,0 0.538898,0.19851 0.568225,0.59081 h 0.436235 c -0.011,-0.35921 -0.106285,-0.62393 -0.282246,-0.79881 -0.179628,-0.17016 -0.41048,-0.25986 -0.692752,-0.25986 z m -4.564064,0.0662 v 3.36516 h 0.461965 v -3.36516 z m 1.008192,0 v 3.36516 h 0.432502 v -2.47658 l 1.216979,2.47658 h 0.472965 v -3.36516 h -0.439967 v 2.4813 l -1.202248,-2.4813 z m 5.025832,0 v 3.36516 h 1.902659 v -0.50577 H 95.63917 v -0.99247 h 1.323435 v -0.47749 H 95.63917 v -0.89329 h 1.426159 v -0.49614 z m 2.309431,0 v 3.36516 h 0.454698 v -1.38963 h 0.60849 c 0.21262,0 0.359252,0.052 0.436234,0.15595 0.07698,0.10399 0.120862,0.2884 0.135526,0.56253 0,0.0189 6.6e-5,0.0519 0.0037,0.0992 0,0.0473 0.0037,0.0805 0.0037,0.0994 l 0.0073,0.085 0.0073,0.0851 c 0,0.0189 6.5e-5,0.0473 0.0037,0.0756 0.0037,0.0284 0.0073,0.052 0.011,0.0709 0,0.0189 0.0037,0.0378 0.011,0.0568 0.0037,0.0189 0.0074,0.0377 0.01473,0.0566 0.0073,0.0189 0.01467,0.0332 0.022,0.0426 h 0.491231 c -0.01466,-0.0142 -0.02567,-0.0331 -0.033,-0.0521 -0.011,-0.0189 -0.0184,-0.0378 -0.02573,-0.0662 -0.0073,-0.0284 -0.0146,-0.052 -0.01827,-0.0709 -0.0073,-0.0189 -0.01113,-0.0519 -0.01846,-0.0898 -0.0073,-0.0378 -0.011,-0.0708 -0.011,-0.0898 -0.0037,-0.0189 -0.0073,-0.0566 -0.011,-0.10862 -0.0037,-0.0473 -0.0073,-0.0852 -0.0073,-0.1041 0,-0.0189 -0.0036,-0.0615 -0.0073,-0.12766 -0.0037,-0.0615 -0.0075,-0.10384 -0.0075,-0.12748 -0.0073,-0.0851 -0.01093,-0.15129 -0.01827,-0.20329 -0.0073,-0.052 -0.01833,-0.11333 -0.033,-0.18423 -0.01833,-0.0662 -0.04033,-0.12303 -0.066,-0.17029 -0.02566,-0.0425 -0.06227,-0.085 -0.106259,-0.12276 -0.04766,-0.0378 -0.102668,-0.0663 -0.164987,-0.0852 0.135636,-0.0614 0.241992,-0.1654 0.318975,-0.3072 0.07332,-0.14179 0.113527,-0.31666 0.113527,-0.5199 0,-0.3214 -0.08422,-0.55761 -0.245517,-0.70886 -0.164964,-0.15125 -0.377609,-0.22686 -0.63422,-0.22686 z m 2.269168,0 v 0.51029 h 0.832202 v 2.85487 h 0.45824 v -2.85487 h 0.8322 v -0.51029 z m -1.81447,0.482 h 0.663486 c 0.07698,0 0.142866,0.009 0.20152,0.0189 0.05865,0.0142 0.113731,0.0378 0.16872,0.0709 0.05499,0.0378 0.09893,0.0898 0.128258,0.16067 0.02933,0.0709 0.044,0.16078 0.044,0.26477 0,0.11816 -0.01827,0.21271 -0.05126,0.28833 -0.03299,0.0756 -0.08067,0.1323 -0.142989,0.16538 -0.06232,0.0331 -0.1246,0.0567 -0.183254,0.0662 -0.06232,0.0142 -0.135734,0.0189 -0.223715,0.0189 h -0.604758 z m -5.433391,4.06478 c -0.334708,0 -0.599898,0.15197 -0.795672,0.44763 -0.195772,0.29566 -0.290495,0.67165 -0.290495,1.12781 0,0.47305 0.09785,0.85316 0.296781,1.14038 0.198931,0.29143 0.461022,0.43505 0.783101,0.43505 0.318921,0 0.577871,-0.14362 0.779959,-0.43505 0.198931,-0.29144 0.299923,-0.67155 0.299923,-1.14038 0,-0.46461 -0.100992,-0.84482 -0.299923,-1.13626 -0.198931,-0.29143 -0.457911,-0.43918 -0.773674,-0.43918 z m 8.307903,0 c -0.34254,0 -0.61397,0.15197 -0.81433,0.44763 -0.200353,0.29566 -0.297369,0.67165 -0.297369,1.12781 0,0.47305 0.10007,0.85317 0.303659,1.14038 0.20358,0.29143 0.47195,0.43505 0.80156,0.43505 0.32638,0 0.59121,-0.14362 0.79803,-0.43505 0.20358,-0.29144 0.30699,-0.67155 0.30699,-1.14038 0,-0.46461 -0.10341,-0.84482 -0.30699,-1.13626 -0.20359,-0.29143 -0.4684,-0.43918 -0.79155,-0.43918 z m -10.590819,0.004 c -0.221034,0 -0.413652,0.076 -0.577848,0.21959 -0.164198,0.1436 -0.287356,0.33366 -0.369454,0.57019 -0.0821,0.23652 -0.123152,0.49432 -0.123152,0.78153 0,0.47727 0.09474,0.85729 0.287353,1.1445 0.189458,0.28721 0.445325,0.43093 0.764246,0.43093 0.277872,0 0.505121,-0.10995 0.681948,-0.32958 0.176827,-0.21963 0.274678,-0.51513 0.296781,-0.88681 H 90.79777 c -0.05052,0.51529 -0.239997,0.76857 -0.574706,0.76857 -0.116832,0 -0.217992,-0.0295 -0.306405,-0.097 -0.08841,-0.0634 -0.154731,-0.14788 -0.205253,-0.2577 -0.05052,-0.10981 -0.08827,-0.22811 -0.113527,-0.35904 -0.02526,-0.12671 -0.03791,-0.26602 -0.03791,-0.41384 0,-0.19429 0.01884,-0.37169 0.06305,-0.53641 0.04421,-0.16472 0.11696,-0.30412 0.221161,-0.41816 0.104203,-0.10982 0.230459,-0.16892 0.382025,-0.16892 0.145252,0 0.265267,0.0548 0.366312,0.15615 0.09789,0.10137 0.160924,0.24509 0.189342,0.42248 h 0.391649 c -0.03789,-0.32944 -0.142148,-0.58292 -0.318975,-0.76031 -0.176828,-0.1774 -0.38522,-0.26614 -0.622043,-0.26614 z m 3.716539,0.0676 v 3.00729 h 0.397934 v -3.00729 z m 0.868346,0 v 3.00729 h 0.372597 v -2.21319 l 1.048258,2.21319 h 0.407362 v -3.00729 h -0.378881 v 2.21751 l -1.035689,-2.21751 z m 2.877656,0 v 0.45627 h 0.733604 v 2.55102 h 0.404024 v -2.55102 h 0.733408 v -0.45627 z m 3.121798,0.37162 c 0.21328,0 0.38131,0.10563 0.50734,0.30837 0.12603,0.20273 0.19052,0.47732 0.19052,0.81943 0,0.34635 -0.0645,0.62093 -0.19052,0.82789 -0.12603,0.20696 -0.29404,0.30837 -0.50086,0.30837 -0.21974,0 -0.39113,-0.10141 -0.51715,-0.30837 -0.12603,-0.20274 -0.18738,-0.48144 -0.18738,-0.83201 0,-0.33789 0.0614,-0.61258 0.19071,-0.81531 0.12603,-0.20274 0.29406,-0.30837 0.50734,-0.30837 z m -8.307708,2e-4 c 0.208404,0 0.372601,0.10544 0.495748,0.30817 0.123148,0.20274 0.186397,0.47732 0.186397,0.81944 0,0.34634 -0.06325,0.62092 -0.186397,0.82788 -0.123147,0.20696 -0.287374,0.30837 -0.489463,0.30837 -0.214719,0 -0.382028,-0.10141 -0.505175,-0.30837 -0.123148,-0.20273 -0.183058,-0.48144 -0.183058,-0.832 0,-0.3379 0.05989,-0.61258 0.1862,-0.81532 0.123148,-0.20273 0.287345,-0.30817 0.495748,-0.30817 z M 89.07424,114.149 v 4.65402 h 0.781727 v -1.67325 h 0.807063 c 0.378291,0 0.686082,-0.1242 0.923145,-0.3726 0.232018,-0.24839 0.352954,-0.62106 0.352954,-1.1113 0,-0.49679 -0.120999,-0.8694 -0.358061,-1.1178 -0.237063,-0.24839 -0.554792,-0.37907 -0.958303,-0.37907 z m 3.359263,0 v 4.65402 h 2.541985 v -0.87581 H 93.220336 V 114.149 Z m 4.271604,0 -1.490191,4.6607 h 0.879934 l 0.318976,-1.03942 h 1.457192 l 0.307781,1.03942 h 0.901931 l -1.49019,-4.6607 z m 1.869662,0.006 1.462691,2.84348 v 1.81074 h 0.84674 v -1.79109 l 1.45719,-2.86313 h -0.95123 l -0.92373,1.86299 -0.912932,-1.86299 z m -8.718802,0.83024 h 0.706303 c 0.403511,0 0.610258,0.22882 0.610258,0.67331 0,0.44449 -0.206811,0.66663 -0.615364,0.66663 h -0.701197 z m 7.289106,0.30719 0.516962,1.73218 h -1.039422 z" />
    <path
       id="rect53884"
       style="display:inline;fill:#000000;fill-opacity:1;stroke-width:0.100564"
       d="m 81.854075,87.056166 c -0.445699,0 -0.804511,0.358811 -0.804511,0.80451 v 35.519244 c 0,0.4457 0.358812,0.80451 0.804511,0.80451 h 22.636865 c 0.4457,0 0.80451,-0.35881 0.80451,-0.80451 V 87.860676 c 0,-0.445699 -0.35881,-0.80451 -0.80451,-0.80451 z m 5.751777,3.967359 H 103.51261 V 121.05223 H 87.605852 Z m -3.106478,1.962566 h 1.899123 v 25.353069 h -1.899123 z" />
    <rect
       style="display:inline;fill:none;fill-opacity:0.538462;stroke:#000000;stroke-width:0.402254;stroke-miterlimit:4;stroke-dasharray:none;stroke-opacity:1"
       id="rect54609"
       width="26.05608"
       height="39.330498"
       x="80.105225"
       y="85.903427"
       rx="1.3073293"
       ry="1.3073293" />
  </g>
</svg>
