<?xml version="1.0" encoding="UTF-8" standalone="no"?>
<!-- Created with Inkscape (http://www.inkscape.org/) -->

<svg
   width="102"
   height="152.17104"
   viewBox="0 0 26.987499 40.261921"
   version="1.1"
   id="svg5"
   inkscape:version="1.1.2 (b8e25be833, 2022-02-05)"
   sodipodi:docname="insert-coin.svg"
   xmlns:inkscape="http://www.inkscape.org/namespaces/inkscape"
   xmlns:sodipodi="http://sodipodi.sourceforge.net/DTD/sodipodi-0.dtd"
   xmlns="http://www.w3.org/2000/svg"
   xmlns:svg="http://www.w3.org/2000/svg">
  <sodipodi:namedview
     id="namedview7"
     pagecolor="#ffffff"
     bordercolor="#666666"
     borderopacity="1.0"
     inkscape:pageshadow="2"
     inkscape:pageopacity="0.0"
     inkscape:pagecheckerboard="0"
     inkscape:document-units="px"
     showgrid="false"
     units="px"
     inkscape:zoom="2.8284271"
     inkscape:cx="-1.9445437"
     inkscape:cy="91.570328"
     inkscape:window-width="1920"
     inkscape:window-height="1137"
     inkscape:window-x="-8"
     inkscape:window-y="-8"
     inkscape:window-maximized="1"
     inkscape:current-layer="layer1"
     fit-margin-top="1"
     fit-margin-left="1"
     fit-margin-bottom="1"
     fit-margin-right="1" />
  <defs
     id="defs2" />
  <g
     inkscape:label="Layer 1"
     inkscape:groupmode="layer"
     id="layer1"
     transform="translate(-73.002303,-85.43772)">
    <g
       id="g59535"
       transform="matrix(0.38008363,0,0,0.38008363,45.419342,53.128261)">
      <rect
         style="display:inline;fill:#000000;fill-opacity:1;stroke:none;stroke-width:1.05833;stroke-miterlimit:4;stroke-dasharray:none;stroke-opacity:1"
         id="rect58320"
         width="68.553543"
         height="103.47854"
         x="73.796051"
         y="86.231468"
         rx="3.4395833"
         ry="3.4395833" />
      <path
         id="text2815"
         style="font-style:normal;font-variant:normal;font-weight:bold;font-stretch:normal;font-size:24.8708px;line-height:8.5725px;font-family:'Helvetica Neue';-inkscape-font-specification:'Helvetica Neue, Bold';font-variant-ligatures:normal;font-variant-caps:normal;font-variant-numeric:normal;font-variant-east-asian:normal;letter-spacing:0px;word-spacing:0px;display:inline;fill:#fed26e;fill-opacity:1;stroke-width:0.999999"
         d="m 388.15234,405.31836 c -7.33199,0 -13.16038,2.25583 -17.48437,6.67383 -4.324,4.41799 -6.48633,10.33963 -6.48633,17.76562 v 1.41016 h 12.7832 c 0.376,-9.49399 3.94881,-14.28711 10.7168,-14.28711 2.82,0 5.07558,0.93886 6.76758,2.63086 1.692,1.692 2.63281,4.04328 2.63281,6.86328 0,1.316 -0.28195,2.63152 -0.75195,3.85352 -0.564,1.22199 -1.03366,2.25581 -1.59766,3.00781 -0.564,0.846 -1.41081,1.78606 -2.63281,2.91406 -1.316,1.128 -2.25631,1.87961 -2.82031,2.34961 -0.658,0.376 -1.78482,1.12786 -3.38282,2.25586 -1.69199,1.034 -2.63376,1.69261 -3.00976,1.97461 -3.008,1.974 -5.26358,3.57122 -6.76758,4.69922 -1.504,1.128 -3.28967,2.63367 -5.26367,4.51367 -2.068,1.88 -3.57172,3.66542 -4.51172,5.35742 -0.94,1.692 -1.78706,3.75913 -2.53906,6.20313 -0.752,2.44399 -1.12696,5.16973 -1.12696,8.17773 h 48.22266 v -11.6543 h -31.11523 c 0.658,-1.03399 1.50506,-2.06951 2.53906,-3.10351 0.94,-1.034 2.16227,-2.06732 3.57226,-3.19531 1.316,-1.034 2.53657,-1.88107 3.47657,-2.53907 0.94,-0.752 2.35097,-1.59661 4.04297,-2.72461 1.69199,-1.12799 2.82051,-1.87961 3.47851,-2.34961 4.69999,-3.19599 8.08385,-6.20514 10.33985,-9.11914 2.16199,-2.81999 3.28906,-6.6745 3.28906,-11.5625 0,-5.92199 -2.06713,-10.71461 -6.20313,-14.47461 -4.13599,-3.75999 -9.58798,-5.64062 -16.16797,-5.64062 z m 34.87305,1.0332 -6.39258,36.19141 h 11.93946 c 2.34999,-3.572 5.63914,-5.45313 9.86914,-5.45313 3.47799,0 6.29723,1.12902 8.36523,3.29102 2.068,2.256 3.10352,5.16994 3.10352,8.83594 0,3.75999 -1.12927,6.76719 -3.19727,9.11718 -2.162,2.35 -4.88774,3.47852 -8.17773,3.47852 -3.008,0 -5.45179,-0.84681 -7.42578,-2.63281 -1.974,-1.786 -3.10277,-4.13483 -3.38477,-7.04883 h -13.1582 c 0.376,6.57999 2.72483,11.65652 7.04882,15.22852 4.324,3.57199 9.96419,5.26367 16.82618,5.26367 7.33199,0 13.25338,-2.16184 17.85937,-6.67383 4.69999,-4.418 6.95703,-10.05964 6.95703,-17.01563 0,-6.39199 -1.88038,-11.65552 -5.73437,-15.60351 -3.76,-3.948 -8.83653,-5.92188 -15.22852,-5.92188 -4.98199,0 -9.023,1.59748 -12.125,4.60547 l 2.53711,-14.28711 h 26.97852 l 0.0937,-11.375 z m 65.99023,19.18555 -1.88476,6.82227 c -0.96718,-0.11762 -1.96566,-0.18946 -3.01172,-0.18946 -5.76,0 -10.43853,1.87266 -13.89453,5.47266 -3.456,3.672 -5.18555,8.49665 -5.18555,14.47265 0,5.832 1.72955,10.51107 5.18555,14.03907 1.83442,1.83442 3.98275,3.18664 6.44727,4.0664 l -2.41211,8.72852 h 3.91406 l 2.16015,-7.81641 c 1.15807,0.17532 2.3658,0.27735 3.64258,0.27735 4.896,0 8.92771,-1.36725 12.09571,-4.03125 3.168,-2.736 5.0395,-6.48069 5.6875,-11.30469 h -9.86329 c -0.864,5.04 -3.45592,7.48828 -7.91992,7.48828 -0.52963,0 -1.03163,-0.0494 -1.51758,-0.125 l 6.18555,-22.38672 c 1.48313,1.05654 2.44694,2.78036 2.89063,5.16016 h 10.00781 c -0.432,-4.32 -2.23017,-7.70461 -5.32617,-10.22461 -1.58025,-1.25701 -3.37652,-2.20673 -5.38672,-2.84571 l 2.10156,-7.60351 z m -4.82421,14.26562 c 0.30091,0 0.58994,0.0159 0.87304,0.0391 l -6.10937,22.11523 c -0.50815,-0.40022 -0.97377,-0.86737 -1.38672,-1.41797 -1.512,-2.016 -2.23242,-4.89636 -2.23242,-8.56836 0,-3.816 0.72069,-6.76773 2.30468,-8.92773 1.584,-2.16 3.74279,-3.24024 6.55079,-3.24024 z m -69.94532,76.20508 c -2.91625,0 -5.25025,0.89175 -7,2.67774 -1.74975,1.78599 -2.58789,4.13667 -2.58789,7.09765 v 0.65821 c 0.14582,2.96098 1.27635,5.12321 3.39063,6.5332 1.02069,0.70499 3.13457,1.59687 6.3789,2.63086 0.0729,0.047 0.21813,0.0956 0.40039,0.14258 1.49458,0.51699 2.55218,0.89183 3.17188,1.17383 0.58325,0.28199 1.16739,0.79903 1.67773,1.45703 0.51035,0.65799 0.80079,1.55194 0.80079,2.58593 0,1.69199 -0.50991,2.9604 -1.49414,3.90039 -0.98424,0.94 -2.33229,1.36329 -4.08204,1.36329 -2.00492,0 -3.6102,-0.56525 -4.84961,-1.74024 -1.2394,-1.17499 -1.85937,-3.00719 -1.85937,-5.45117 h -4.48242 c 0,3.90098 0.98401,6.86195 3.02539,8.83594 2.00492,2.02098 4.62937,3.00781 7.91015,3.00781 1.02069,0 2.04116,-0.0931 3.0254,-0.32813 0.94778,-0.23499 1.89531,-0.61178 2.80664,-1.17578 0.87487,-0.51699 1.67782,-1.17561 2.33398,-1.97461 0.65616,-0.79899 1.16542,-1.78582 1.56641,-3.00781 0.36453,-1.17499 0.58398,-2.49015 0.58398,-3.99414 0,-3.38398 -1.16634,-5.87467 -3.46289,-7.47266 -1.05714,-0.75199 -3.02645,-1.59906 -5.90625,-2.53906 -0.32808,-0.094 -0.76441,-0.23375 -1.34766,-0.46875 -2.22364,-0.70499 -3.64657,-1.31699 -4.30273,-1.83398 -0.65616,-0.47 -0.94727,-1.41045 -0.94727,-2.77344 0,-1.40999 0.43763,-2.53682 1.3125,-3.38281 0.87488,-0.846 2.07705,-1.26953 3.64453,-1.26953 3.49951,0 5.35877,1.97402 5.6504,5.875 h 4.33789 c -0.10936,-3.57198 -1.05689,-6.20437 -2.80664,-7.94336 -1.78621,-1.69199 -4.08178,-2.58399 -6.88868,-2.58399 z m -45.38476,0.65821 v 33.46289 h 4.59375 v -33.46289 z m 10.02539,0 v 33.46289 h 4.30078 v -24.62696 l 12.10156,24.62696 h 4.70313 v -33.46289 h -4.375 v 24.67382 l -11.95508,-24.67382 z m 49.97656,0 v 33.46289 h 18.91992 v -5.0293 h -14.40039 v -9.86914 h 13.16016 v -4.74805 h -13.16016 v -8.88281 h 14.18164 v -4.93359 z m 22.96484,0 v 33.46289 h 4.52149 v -13.81836 h 6.05078 c 2.11428,0 3.57238,0.51678 4.33789,1.55078 0.76552,1.03399 1.20184,2.86777 1.34766,5.59375 0,0.188 6.5e-4,0.51633 0.0371,0.98633 0,0.46999 0.0371,0.80028 0.0371,0.98828 l 0.0723,0.8457 0.0723,0.8457 c 0,0.188 6.5e-4,0.46996 0.0371,0.75196 0.0365,0.282 0.0729,0.51708 0.10937,0.70507 0,0.188 0.0365,0.37646 0.10938,0.56446 0.0365,0.188 0.0736,0.3745 0.14648,0.5625 0.0729,0.188 0.14584,0.32983 0.21875,0.42383 h 4.88477 c -0.14582,-0.141 -0.25522,-0.32958 -0.32813,-0.51758 -0.10936,-0.188 -0.18295,-0.37621 -0.25586,-0.65821 -0.0729,-0.28199 -0.14518,-0.51707 -0.18164,-0.70507 -0.0729,-0.188 -0.11069,-0.51658 -0.18359,-0.89258 -0.0729,-0.376 -0.10938,-0.70458 -0.10938,-0.89258 -0.0365,-0.188 -0.0729,-0.56308 -0.10937,-1.08008 -0.0365,-0.46999 -0.0723,-0.84715 -0.0723,-1.03515 0,-0.188 -0.0358,-0.61154 -0.0723,-1.26954 -0.0365,-0.61099 -0.0742,-1.03257 -0.0742,-1.26757 -0.0729,-0.846 -0.10874,-1.50449 -0.18164,-2.02149 -0.0729,-0.51699 -0.18231,-1.12703 -0.32813,-1.83203 -0.18226,-0.65799 -0.40108,-1.22336 -0.65625,-1.69336 -0.25517,-0.423 -0.6192,-0.8447 -1.05664,-1.2207 -0.47389,-0.376 -1.02092,-0.65966 -1.64062,-0.84766 1.34876,-0.61099 2.40636,-1.64469 3.17187,-3.05469 0.72906,-1.40999 1.12891,-3.14893 1.12891,-5.16992 0,-3.19598 -0.83747,-5.54483 -2.44141,-7.04882 -1.64039,-1.504 -3.75492,-2.25586 -6.30664,-2.25586 z m 22.56446,0 v 5.07421 h 8.27539 v 28.38868 h 4.55664 V 521.74023 H 495.5 v -5.07421 z m -18.04297,4.79296 h 6.59766 c 0.76551,0 1.42065,0.0935 2.0039,0.1875 0.58325,0.141 1.13094,0.37608 1.67774,0.70508 0.54679,0.376 0.98376,0.89266 1.27539,1.59766 0.29162,0.70499 0.4375,1.59882 0.4375,2.63281 0,1.17499 -0.18169,2.11519 -0.50977,2.86719 -0.32808,0.75199 -0.80217,1.31553 -1.42187,1.64453 -0.61971,0.329 -1.23902,0.5642 -1.82227,0.6582 -0.6197,0.141 -1.34973,0.1875 -2.22461,0.1875 h -6.01367 z m -54.0293,40.41993 c -3.32832,0 -5.96535,1.51116 -7.91211,4.45117 -1.94675,2.94 -2.88867,6.67884 -2.88867,11.21484 0,4.70401 0.97302,8.48384 2.95117,11.33985 1.97816,2.898 4.58438,4.32617 7.78711,4.32617 3.17133,0 5.74631,-1.42817 7.75586,-4.32617 1.97816,-2.89801 2.98242,-6.67784 2.98242,-11.33985 0,-4.62 -1.00426,-8.40082 -2.98242,-11.29883 -1.97815,-2.898 -4.55343,-4.36718 -7.69336,-4.36718 z m 82.61328,0 c -3.4062,0 -6.10534,1.51117 -8.09765,4.45117 -1.99231,2.94 -2.95703,6.67885 -2.95703,11.21484 0,4.704 0.99509,8.48385 3.01953,11.33985 2.02444,2.89799 4.69303,4.32617 7.9707,4.32617 3.24553,0 5.87897,-1.42818 7.93555,-4.32617 2.02444,-2.898 3.05273,-6.67785 3.05273,-11.33985 0,-4.61999 -1.02829,-8.40083 -3.05273,-11.29883 -2.02444,-2.89799 -4.6577,-4.36718 -7.8711,-4.36718 z m -105.31445,0.041 c -2.19795,0 -4.11333,0.75559 -5.74609,2.1836 -1.63277,1.428 -2.85745,3.31791 -3.67383,5.66992 -0.81638,2.352 -1.22461,4.91548 -1.22461,7.77148 0,4.74601 0.94206,8.52486 2.85742,11.38086 1.88396,2.856 4.42828,4.28516 7.59961,4.28516 2.76314,0 5.02289,-1.09334 6.78125,-3.27735 1.75836,-2.184 2.73138,-5.12235 2.95117,-8.81836 h -3.92383 c -0.50238,5.12401 -2.38651,7.64258 -5.71484,7.64258 -1.16177,0 -2.16769,-0.29284 -3.04687,-0.96484 -0.87919,-0.63 -1.53863,-1.4705 -2.04102,-2.5625 -0.50239,-1.092 -0.87771,-2.26831 -1.12891,-3.57031 -0.25119,-1.26001 -0.37695,-2.64524 -0.37695,-4.11524 0,-1.932 0.18736,-3.69598 0.62695,-5.33398 0.43959,-1.638 1.16305,-3.0242 2.19922,-4.15821 1.03618,-1.092 2.29166,-1.67968 3.79883,-1.67968 1.44437,0 2.6378,0.54473 3.64258,1.55273 0.97338,1.008 1.60022,2.43717 1.88281,4.20117 h 3.89453 c -0.37679,-3.276 -1.41351,-5.79654 -3.17187,-7.56054 -1.75836,-1.76401 -3.8306,-2.64649 -6.18555,-2.64649 z m 36.95703,0.67188 v 29.90429 h 3.95703 V 562.5918 Z m 8.63477,0 v 29.90429 h 3.70508 v -22.00781 l 10.42382,22.00781 h 4.05078 V 562.5918 h -3.76757 v 22.05078 L 429.32422,562.5918 Z m 28.61523,0 v 4.53711 h 7.29492 v 25.36718 h 4.01758 V 567.1289 h 7.29297 v -4.53711 z m 31.04297,3.69531 c 2.12084,0 3.7917,1.05041 5.04492,3.06641 1.25323,2.01599 1.89453,4.74644 1.89453,8.14843 0,3.444 -0.6413,6.17443 -1.89453,8.23243 -1.25322,2.05799 -2.92389,3.0664 -4.98047,3.0664 -2.18511,0 -3.88935,-1.00841 -5.14257,-3.0664 -1.25323,-2.016 -1.86329,-4.78744 -1.86329,-8.27344 0,-3.36 0.61113,-6.09143 1.89649,-8.10742 1.25322,-2.016 2.92408,-3.06641 5.04492,-3.06641 z m -82.61133,0.002 c 2.07236,0 3.70512,1.04845 4.92969,3.06446 1.22457,2.016 1.85352,4.74643 1.85352,8.14843 0,3.44401 -0.62895,6.17442 -1.85352,8.23243 -1.22457,2.058 -2.85763,3.0664 -4.86719,3.0664 -2.13515,0 -3.79886,-1.0084 -5.02343,-3.0664 -1.22458,-2.01601 -1.82032,-4.78744 -1.82032,-8.27344 0,-3.36001 0.59559,-6.09142 1.85156,-8.10742 1.22458,-2.01601 2.85734,-3.06446 4.92969,-3.06446 z m -34.15625,40.49805 v 46.2793 h 7.77344 v -16.63868 h 8.02539 c 3.7617,0 6.82235,-1.23507 9.17969,-3.70507 2.30718,-2.47001 3.50976,-6.17578 3.50976,-11.05078 0,-4.94001 -1.20321,-8.64524 -3.56054,-11.11524 -2.35734,-2.47 -5.51682,-3.76953 -9.5293,-3.76953 z m 33.4043,0 v 46.2793 h 25.27734 v -8.70899 h -17.45312 v -37.57031 z m 42.47656,0 -14.81836,46.3457 h 8.75 l 3.17188,-10.33593 h 14.49023 l 3.06055,10.33593 h 8.96875 l -14.81836,-46.3457 z m 18.5918,0.0644 14.54492,28.27539 v 18.00586 h 8.41992 v -17.81054 l 14.49024,-28.47071 h -9.45899 l -9.18554,18.52539 -9.07813,-18.52539 z m -86.69922,8.25586 h 7.02344 c 4.01248,0 6.06836,2.27531 6.06836,6.69531 0,4.42001 -2.05651,6.62891 -6.11914,6.62891 H 375.875 Z m 72.48242,3.05469 5.14063,17.22461 h -10.33594 z"
         transform="scale(0.26458333)" />
      <path
         id="rect53884"
         style="display:inline;fill:#e01e23;fill-opacity:1;stroke-width:0.999999"
         d="m 296.30469,337.37695 c -4.432,0 -8,3.568 -8,8 v 353.20117 c 0,4.432 3.568,8 8,8 H 521.4043 c 4.432,0 8,-3.568 8,-8 V 345.37695 c 0,-4.432 -3.568,-8 -8,-8 z M 353.5,376.82812 H 511.67578 V 675.43164 H 353.5 Z m -30.89062,19.51563 h 18.88476 v 252.10937 h -18.88476 z"
         transform="scale(0.26458333)" />
      <rect
         style="display:inline;fill:none;fill-opacity:0.538462;stroke:#e01e23;stroke-width:1.05833;stroke-miterlimit:4;stroke-dasharray:none;stroke-opacity:1"
         id="rect54609"
         width="68.553543"
         height="103.47854"
         x="73.796051"
         y="86.231468"
         rx="3.4395833"
         ry="3.4395833" />
    </g>
  </g>
</svg>
